<svg id="svg" version="1.1" xmlns="http://www.w3.org/2000/svg" width="400" height="400"
     viewBox="0, 0, 400, 400">
        <path id="path0"
              d="M74.917 52.510 C 67.223 53.108,60.767 56.801,55.855 63.417 C 54.722 64.943,52.500 68.908,52.500 69.405 C 52.500 69.475,52.394 69.769,52.264 70.058 C 52.135 70.347,51.942 70.883,51.836 71.250 C 51.730 71.617,51.580 72.067,51.503 72.250 C 51.121 73.153,50.357 76.789,49.978 79.500 C 49.832 80.545,49.750 92.008,49.668 123.167 C 49.585 154.310,49.503 165.877,49.355 167.167 C 48.745 172.505,47.481 176.223,44.718 180.808 C 43.738 182.434,40.611 186.923,40.172 187.333 C 40.123 187.379,39.604 187.979,39.018 188.667 C 37.576 190.359,34.212 193.661,32.734 194.836 C 31.392 195.902,28.770 197.667,28.528 197.667 C 28.442 197.667,28.101 197.967,27.769 198.334 C 26.492 199.748,27.037 201.339,29.218 202.559 C 31.843 204.028,36.697 208.310,39.164 211.333 C 39.650 211.929,40.096 212.454,40.155 212.500 C 40.520 212.785,43.683 217.307,44.718 219.026 C 47.494 223.632,48.742 227.304,49.355 232.667 C 49.503 233.957,49.585 245.524,49.668 276.667 C 49.779 318.698,49.799 320.059,50.329 322.500 C 50.418 322.912,50.573 323.737,50.672 324.333 C 50.878 325.566,50.905 325.663,51.846 328.500 C 53.594 333.772,56.787 338.434,60.919 341.750 C 61.376 342.117,61.788 342.459,61.833 342.510 C 62.159 342.873,65.041 344.617,66.186 345.143 C 70.580 347.161,73.268 347.491,85.333 347.495 C 94.235 347.498,94.410 347.482,95.122 346.548 L 95.583 345.943 95.583 340.513 C 95.583 332.848,96.353 333.500,87.314 333.500 C 79.372 333.500,76.158 333.220,74.083 332.349 C 68.710 330.095,65.858 326.211,65.171 320.216 C 65.062 319.267,65.002 303.166,65.001 274.568 C 65.001 247.687,64.938 229.870,64.842 229.068 C 64.754 228.343,64.602 227.055,64.504 226.205 C 64.405 225.355,64.208 224.192,64.066 223.622 C 63.707 222.181,63.178 220.315,63.014 219.917 C 62.939 219.733,62.704 219.133,62.492 218.583 C 61.989 217.278,60.975 215.132,60.366 214.083 C 60.099 213.625,59.713 212.950,59.507 212.583 C 57.765 209.486,54.521 205.579,51.356 202.768 C 48.842 200.536,48.570 199.508,50.135 198.149 C 52.315 196.256,53.211 195.396,54.548 193.917 C 56.441 191.821,58.438 189.129,59.529 187.204 C 59.722 186.862,60.016 186.358,60.183 186.083 C 60.682 185.257,62.088 182.319,62.496 181.250 C 62.706 180.700,62.939 180.100,63.014 179.917 C 63.178 179.518,63.707 177.652,64.066 176.212 C 64.208 175.641,64.405 174.478,64.504 173.628 C 64.602 172.779,64.754 171.490,64.842 170.765 C 64.938 169.963,65.001 152.146,65.001 125.265 C 65.002 96.667,65.062 80.566,65.171 79.617 C 65.860 73.604,68.682 69.762,74.083 67.483 C 76.150 66.612,79.247 66.340,87.147 66.336 C 96.363 66.332,95.583 66.988,95.583 59.237 L 95.583 53.891 95.122 53.286 C 94.828 52.901,94.434 52.618,94.038 52.508 C 93.312 52.306,77.520 52.308,74.917 52.510 M306.080 52.467 C 304.554 52.996,304.500 53.229,304.500 59.343 C 304.500 66.981,303.722 66.333,312.892 66.333 C 320.723 66.333,323.907 66.616,325.917 67.488 C 326.100 67.568,326.512 67.730,326.833 67.849 C 330.962 69.376,334.204 74.029,334.833 79.329 C 334.941 80.241,335.000 96.275,335.001 124.579 C 335.001 176.952,334.884 174.247,337.453 180.995 C 338.769 184.449,342.507 190.874,343.906 192.083 C 344.012 192.175,344.226 192.436,344.383 192.662 C 344.905 193.420,347.895 196.393,350.041 198.288 C 351.166 199.282,351.056 200.805,349.787 201.802 C 348.912 202.488,345.295 206.050,344.694 206.817 C 344.450 207.128,344.131 207.503,343.986 207.650 C 341.942 209.712,338.165 216.446,337.013 220.083 C 334.880 226.815,335.000 223.513,335.000 275.298 C 335.000 303.577,334.941 319.592,334.833 320.504 C 334.204 325.804,330.962 330.457,326.833 331.985 C 326.512 332.103,326.100 332.265,325.917 332.345 C 323.908 333.217,320.722 333.500,312.905 333.500 C 303.733 333.500,304.500 332.866,304.500 340.455 C 304.500 346.286,304.509 346.347,305.480 347.085 C 306.009 347.487,324.044 347.591,326.500 347.206 C 330.104 346.642,332.862 345.793,334.882 344.628 C 335.322 344.374,335.712 344.167,335.750 344.167 C 335.788 344.167,336.103 343.978,336.451 343.747 C 336.799 343.516,337.225 343.235,337.399 343.122 C 337.572 343.009,337.902 342.748,338.131 342.542 C 338.361 342.335,338.611 342.167,338.687 342.167 C 339.576 342.167,345.030 335.613,346.385 332.917 C 347.178 331.340,347.667 330.217,347.667 329.976 C 347.667 329.842,347.731 329.662,347.809 329.575 C 347.930 329.441,348.391 328.033,349.008 325.917 C 349.088 325.642,349.301 324.667,349.480 323.750 C 350.499 318.543,350.497 318.629,350.501 274.667 C 350.504 228.737,350.444 230.340,352.353 225.000 C 352.824 223.683,353.719 221.748,354.319 220.750 C 354.484 220.475,354.789 219.951,354.995 219.587 C 356.112 217.615,358.410 214.298,359.906 212.500 C 361.690 210.355,362.209 209.782,363.758 208.250 C 366.622 205.418,368.779 203.691,371.000 202.453 C 372.581 201.572,372.750 201.323,372.750 199.891 C 372.750 198.513,372.587 198.287,370.887 197.319 C 369.766 196.680,367.049 194.707,366.100 193.842 C 362.069 190.169,358.722 186.203,355.967 181.833 C 354.990 180.282,353.333 177.391,353.333 177.235 C 353.333 177.203,353.158 176.781,352.943 176.297 C 351.784 173.680,350.980 170.299,350.675 166.750 C 350.563 165.448,350.502 150.935,350.501 125.167 C 350.497 81.182,350.499 81.255,349.477 76.083 C 349.004 73.691,347.823 69.771,347.241 68.667 C 347.121 68.438,346.786 67.762,346.497 67.167 C 345.116 64.318,339.637 57.667,338.672 57.667 C 338.590 57.667,338.425 57.569,338.304 57.450 C 336.214 55.393,331.529 53.455,326.667 52.636 C 325.581 52.453,306.570 52.297,306.080 52.467 "
              stroke="none" fill="#c4c4c4" fill-rule="evenodd"/>
        <path id="path1"
              d="M192.500 101.495 C 189.457 101.769,185.885 102.180,185.250 102.328 C 184.883 102.414,184.208 102.532,183.750 102.590 C 180.388 103.017,173.648 104.680,168.833 106.270 C 167.321 106.770,165.933 107.249,165.750 107.336 C 165.567 107.423,164.817 107.714,164.083 107.982 C 162.924 108.407,162.116 108.735,160.750 109.334 C 157.884 110.592,152.218 113.412,152.000 113.690 C 151.954 113.748,151.654 113.919,151.333 114.069 C 151.012 114.219,150.600 114.435,150.417 114.548 C 150.233 114.662,149.446 115.136,148.667 115.602 C 147.887 116.068,146.950 116.649,146.583 116.894 C 146.217 117.139,145.804 117.412,145.667 117.501 C 145.350 117.704,141.530 120.401,141.083 120.736 C 140.900 120.873,140.600 121.102,140.417 121.245 C 140.233 121.387,139.659 121.828,139.141 122.224 C 138.623 122.620,138.088 123.050,137.953 123.180 C 137.817 123.310,137.379 123.679,136.979 124.000 C 133.451 126.833,127.913 132.350,124.417 136.518 C 123.966 137.055,121.487 140.208,121.133 140.694 C 120.223 141.945,119.493 142.938,119.377 143.083 C 119.304 143.175,118.985 143.662,118.667 144.167 C 118.349 144.671,118.030 145.158,117.959 145.250 C 117.675 145.613,116.907 146.820,116.102 148.167 C 115.636 148.946,115.163 149.733,115.051 149.917 C 114.939 150.100,114.713 150.512,114.549 150.833 C 114.384 151.154,114.212 151.454,114.167 151.500 C 114.042 151.625,113.574 152.510,112.351 154.932 C 110.913 157.782,110.043 159.666,109.089 162.000 C 108.845 162.596,108.548 163.308,108.429 163.583 C 108.310 163.858,107.894 164.983,107.504 166.083 C 107.114 167.183,106.734 168.233,106.659 168.417 C 106.584 168.600,106.438 169.050,106.333 169.417 C 106.229 169.783,106.076 170.233,105.995 170.417 C 105.913 170.600,105.737 171.162,105.604 171.667 C 105.471 172.171,105.063 173.671,104.699 175.000 C 103.781 178.347,103.092 181.585,102.588 184.917 C 102.449 185.833,102.264 186.996,102.175 187.500 C 102.087 188.004,101.933 189.392,101.835 190.583 C 101.736 191.775,101.583 193.438,101.494 194.278 C 101.280 196.314,101.289 205.236,101.507 207.565 C 102.355 216.612,103.219 221.475,105.092 227.750 C 105.338 228.575,105.617 229.550,105.711 229.917 C 105.805 230.283,105.935 230.658,105.999 230.750 C 106.063 230.842,106.213 231.292,106.333 231.750 C 106.453 232.208,106.605 232.658,106.671 232.750 C 106.736 232.842,106.880 233.217,106.990 233.583 C 107.100 233.950,107.257 234.400,107.338 234.583 C 107.420 234.767,107.781 235.667,108.140 236.583 C 110.242 241.953,113.846 248.782,117.420 254.167 C 118.059 255.129,118.620 255.954,118.666 256.000 C 118.712 256.046,119.010 256.458,119.327 256.917 C 119.645 257.375,119.982 257.835,120.077 257.940 C 120.172 258.044,120.400 258.338,120.583 258.592 C 120.767 258.847,120.992 259.136,121.083 259.236 C 121.175 259.335,121.673 259.979,122.189 260.667 C 122.706 261.354,123.268 262.068,123.439 262.253 C 123.610 262.437,124.123 263.037,124.579 263.586 C 125.966 265.255,126.451 265.769,130.167 269.508 C 133.437 272.801,134.944 274.200,136.979 275.833 C 137.379 276.154,137.817 276.523,137.953 276.653 C 138.187 276.878,139.520 277.919,140.361 278.535 C 140.575 278.691,140.900 278.939,141.083 279.086 C 141.415 279.351,145.189 282.025,145.667 282.333 C 145.804 282.421,146.217 282.694,146.583 282.939 C 146.950 283.184,147.887 283.766,148.667 284.232 C 149.446 284.698,150.233 285.172,150.417 285.285 C 150.600 285.398,151.012 285.614,151.333 285.764 C 151.654 285.915,151.954 286.085,152.000 286.144 C 152.218 286.421,157.884 289.241,160.750 290.499 C 162.116 291.098,162.924 291.426,164.083 291.851 C 164.817 292.120,165.567 292.411,165.750 292.497 C 166.419 292.814,171.635 294.485,173.500 294.981 C 179.315 296.528,182.398 297.147,187.250 297.743 C 188.350 297.878,190.000 298.085,190.917 298.203 C 193.226 298.499,207.163 298.500,209.250 298.204 C 210.075 298.087,211.688 297.880,212.833 297.745 C 216.063 297.363,219.673 296.714,222.917 295.931 C 223.467 295.798,224.442 295.567,225.083 295.418 C 225.725 295.269,226.400 295.079,226.583 294.997 C 226.767 294.915,227.254 294.763,227.667 294.660 C 229.675 294.157,234.859 292.401,236.275 291.744 C 236.564 291.610,236.853 291.500,236.917 291.500 C 236.981 291.500,237.269 291.394,237.558 291.265 C 237.847 291.135,238.908 290.671,239.917 290.232 C 242.347 289.175,246.414 287.151,248.130 286.143 C 248.889 285.698,249.534 285.333,249.563 285.333 C 249.663 285.333,252.265 283.744,254.063 282.583 C 255.748 281.496,261.440 277.365,262.000 276.823 C 262.137 276.690,262.737 276.178,263.333 275.686 C 267.993 271.841,273.659 266.035,277.417 261.256 C 277.692 260.906,277.994 260.537,278.088 260.435 C 278.183 260.333,278.912 259.350,279.709 258.250 C 280.507 257.150,281.218 256.175,281.290 256.083 C 281.363 255.992,281.681 255.504,281.997 255.000 C 282.314 254.496,282.614 254.046,282.665 254.000 C 282.826 253.855,285.268 249.905,285.562 249.313 C 285.625 249.187,285.976 248.558,286.343 247.917 C 287.014 246.744,289.673 241.441,290.198 240.231 C 290.352 239.875,290.594 239.321,290.735 239.000 C 296.382 226.129,299.211 210.926,298.660 196.417 C 298.517 192.666,298.101 187.559,297.838 186.333 C 297.749 185.921,297.632 185.208,297.577 184.750 C 296.807 178.306,293.879 168.018,290.831 161.046 C 290.640 160.608,290.356 159.958,290.200 159.602 C 289.655 158.354,287.000 153.072,286.338 151.917 C 285.970 151.275,285.619 150.646,285.558 150.520 C 285.323 150.030,282.930 146.143,282.622 145.750 C 282.550 145.658,282.251 145.208,281.957 144.750 C 281.663 144.292,281.363 143.842,281.291 143.750 C 281.218 143.658,280.507 142.683,279.709 141.583 C 278.912 140.483,278.183 139.500,278.088 139.398 C 277.994 139.296,277.692 138.924,277.417 138.571 C 273.916 134.073,267.921 127.933,263.333 124.147 C 262.737 123.655,262.137 123.144,262.000 123.011 C 261.440 122.468,255.748 118.337,254.063 117.250 C 252.265 116.090,249.663 114.500,249.563 114.500 C 249.534 114.500,248.888 114.132,248.127 113.683 C 246.411 112.669,238.939 109.011,238.552 108.994 C 238.478 108.991,238.117 108.844,237.750 108.667 C 237.383 108.490,237.020 108.342,236.942 108.339 C 236.864 108.336,236.564 108.224,236.275 108.090 C 234.747 107.380,229.057 105.474,227.250 105.067 C 226.975 105.005,226.675 104.902,226.583 104.838 C 226.492 104.774,225.967 104.628,225.417 104.514 C 224.867 104.400,224.192 104.239,223.917 104.155 C 221.753 103.497,216.640 102.543,212.833 102.088 C 211.688 101.950,210.188 101.752,209.500 101.647 C 208.030 101.423,194.629 101.303,192.500 101.495 M205.250 151.004 C 212.853 151.825,220.006 154.348,226.667 158.558 C 227.262 158.935,227.787 159.282,227.833 159.330 C 227.879 159.378,228.292 159.677,228.750 159.995 C 229.667 160.632,229.886 160.796,230.310 161.167 C 230.467 161.304,231.147 161.865,231.820 162.412 C 237.127 166.727,242.346 173.739,245.159 180.333 C 245.452 181.021,245.791 181.808,245.912 182.083 C 246.034 182.358,246.337 183.221,246.586 184.000 C 246.835 184.779,247.103 185.567,247.182 185.750 C 247.458 186.396,248.237 189.820,248.567 191.833 C 249.139 195.335,249.228 196.430,249.228 199.917 C 249.228 203.404,249.139 204.498,248.567 208.000 C 248.222 210.108,247.465 213.441,247.185 214.083 C 247.105 214.267,246.835 215.054,246.586 215.833 C 246.337 216.612,246.034 217.475,245.912 217.750 C 245.791 218.025,245.452 218.813,245.159 219.500 C 242.346 226.095,237.127 233.106,231.820 237.421 C 231.147 237.969,230.467 238.529,230.310 238.667 C 229.886 239.038,229.667 239.202,228.750 239.838 C 228.292 240.156,227.879 240.456,227.833 240.504 C 227.434 240.920,223.711 243.073,221.583 244.117 C 217.495 246.123,212.245 247.804,208.149 248.419 C 207.218 248.559,206.409 248.703,206.350 248.739 C 205.631 249.184,196.059 249.129,193.417 248.665 C 192.867 248.569,191.817 248.384,191.083 248.255 C 188.367 247.776,182.263 246.005,181.583 245.498 C 181.492 245.430,181.229 245.319,181.000 245.252 C 180.516 245.109,176.691 243.218,175.833 242.697 C 175.512 242.502,175.025 242.218,174.750 242.065 C 170.766 239.857,165.356 235.161,162.004 231.000 C 161.228 230.037,160.498 229.151,160.380 229.030 C 160.263 228.909,160.167 228.745,160.167 228.667 C 160.167 228.588,160.073 228.424,159.958 228.301 C 159.538 227.853,158.670 226.526,157.599 224.694 C 148.643 209.379,148.643 190.454,157.599 175.140 C 158.670 173.308,159.538 171.980,159.958 171.532 C 160.073 171.410,160.167 171.245,160.167 171.167 C 160.167 171.088,160.263 170.925,160.380 170.804 C 160.498 170.682,161.228 169.796,162.003 168.833 C 165.382 164.637,170.689 160.030,174.750 157.769 C 175.025 157.616,175.512 157.331,175.833 157.136 C 176.691 156.615,180.516 154.724,181.000 154.582 C 181.229 154.514,181.492 154.403,181.583 154.335 C 181.801 154.172,185.467 152.934,186.750 152.589 C 189.500 151.851,190.180 151.692,191.333 151.516 C 192.021 151.411,192.996 151.246,193.500 151.149 C 195.813 150.707,201.814 150.632,205.250 151.004 "
              stroke="none" fill="#047cc4" fill-rule="evenodd"/>
</svg>
